<svg width="512" height="512" viewBox="0 0 512 512" fill="none" xmlns="http://www.w3.org/2000/svg">
  <rect width="512" height="512" rx="132" fill="url(#bg)"/>
  <rect x="20" y="20" width="472" height="472" rx="112" stroke="url(#frame)" stroke-width="10" stroke-opacity="0.65"/>
  <circle cx="256" cy="256" r="146" fill="url(#globeFill)"/>
  <circle cx="256" cy="256" r="146" stroke="rgba(255,255,255,0.28)" stroke-width="10"/>
  <path d="M126 256H386" stroke="url(#lineA)" stroke-width="12" stroke-linecap="round"/>
  <path d="M153 196H359" stroke="url(#lineB)" stroke-width="10" stroke-linecap="round" opacity="0.78"/>
  <path d="M153 316H359" stroke="url(#lineB)" stroke-width="10" stroke-linecap="round" opacity="0.78"/>
  <path d="M256 110C221 143 202 197 202 256C202 315 221 369 256 402" stroke="url(#lineA)" stroke-width="12" stroke-linecap="round"/>
  <path d="M256 110C291 143 310 197 310 256C310 315 291 369 256 402" stroke="url(#lineA)" stroke-width="12" stroke-linecap="round"/>
  <path d="M173 142C197 173 212 213 212 256C212 299 197 339 173 370" stroke="url(#lineB)" stroke-width="10" stroke-linecap="round" opacity="0.78"/>
  <path d="M339 142C315 173 300 213 300 256C300 299 315 339 339 370" stroke="url(#lineB)" stroke-width="10" stroke-linecap="round" opacity="0.78"/>
  <circle cx="349" cy="171" r="24" fill="url(#signal)"/>
  <path d="M360 159C372 166 380 179 380 194" stroke="#F8FAFC" stroke-width="8" stroke-linecap="round" opacity="0.85"/>
  <path d="M351 151C372 161 387 182 390 207" stroke="#FBBF24" stroke-width="6" stroke-linecap="round" opacity="0.9"/>
  <defs>
    <linearGradient id="bg" x1="72" y1="44" x2="454" y2="468" gradientUnits="userSpaceOnUse">
      <stop stop-color="#08111F"/>
      <stop offset="0.55" stop-color="#10213B"/>
      <stop offset="1" stop-color="#040816"/>
    </linearGradient>
    <linearGradient id="frame" x1="58" y1="52" x2="430" y2="478" gradientUnits="userSpaceOnUse">
      <stop stop-color="#67E8F9"/>
      <stop offset="1" stop-color="#FBBF24"/>
    </linearGradient>
    <radialGradient id="globeFill" cx="0" cy="0" r="1" gradientUnits="userSpaceOnUse" gradientTransform="translate(210 186) rotate(54.068) scale(212.745)">
      <stop stop-color="#12304F"/>
      <stop offset="0.58" stop-color="#0B1730"/>
      <stop offset="1" stop-color="#09101F"/>
    </radialGradient>
    <linearGradient id="lineA" x1="126" y1="256" x2="386" y2="256" gradientUnits="userSpaceOnUse">
      <stop stop-color="#67E8F9"/>
      <stop offset="1" stop-color="#A5F3FC"/>
    </linearGradient>
    <linearGradient id="lineB" x1="153" y1="196" x2="359" y2="316" gradientUnits="userSpaceOnUse">
      <stop stop-color="#22D3EE"/>
      <stop offset="1" stop-color="#FDE68A"/>
    </linearGradient>
    <radialGradient id="signal" cx="0" cy="0" r="1" gradientUnits="userSpaceOnUse" gradientTransform="translate(341 165) rotate(46.4321) scale(40.2561)">
      <stop stop-color="#FDE68A"/>
      <stop offset="1" stop-color="#F59E0B"/>
    </radialGradient>
  </defs>
</svg>